<?xml version="1.0" encoding="iso-8859-1"?>
<!-- Generator: Adobe Illustrator 19.0.0, SVG Export Plug-In . SVG Version: 6.00 Build 0)  -->
<svg version="1.1" id="Layer_1" xmlns="http://www.w3.org/2000/svg" xmlns:xlink="http://www.w3.org/1999/xlink" x="0px" y="0px"
	 viewBox="0 0 298.841 298.841" style="enable-background:new 0 0 298.841 298.841;" xml:space="preserve">
<g id="XMLID_1303_">
	<g>
		<g>
			<path d="M93.354,153.464l1.465-1.134l-50.494-45.007l-12.41,9.073c-5.489,3.519-8.078,9.941-8.713,15.065L6.296,267.942
				c-0.98,7.904,4.634,15.106,12.538,16.085c7.905,0.98,15.106-4.635,16.085-12.538L51.22,139.897l10.755,9.38l37.486,124.591
				c2.295,7.628,10.339,11.949,17.965,9.655c7.627-2.295,11.949-10.338,9.655-17.965L93.354,153.464z"/>
			<circle cx="166.703" cy="57.473" r="25.029"/>
			<path d="M296.031,262.956l-57.969-73.513c-2.245-2.847-5.67-4.508-9.295-4.508s-7.05,1.661-9.295,4.508
				c-8.12,10.297-8.635,10.95-14.049,17.816L60.964,78.496c8.482-20.303,13.782-32.987,14.729-35.255l26.235,21.969L80.283,81.035
				l49.572,44.185l3.874-2.998l-1.126,5.448l36.617,32.639l0.844-0.276c5.678-1.857,8.776-7.964,6.919-13.641
				c-1.857-5.678-7.964-8.778-13.641-6.919l-11.893,3.889L158.342,110c0.833-4.033-0.698-8.005-3.646-10.479
				c-1.304-1.784-32.401-44.318-34.727-47.5l-0.094,0.069c-0.61-0.609,2.173,1.757-41.556-34.863
				c-2.636-2.208-6.16-3.029-9.505-2.217c-3.339,0.814-6.094,3.168-7.42,6.34C59.477,25.94,45.842,58.575,43.881,63.27
				L18.012,40.211c-4.459-3.976-11.296-3.582-15.271,0.878C-1.233,45.547-0.84,52.384,3.62,56.359l188.385,167.916
				c-6.325,8.022-24.401,30.944-30.501,38.68c-3.103,3.936-3.686,9.299-1.499,13.809c2.187,4.51,6.759,7.373,11.771,7.373h113.983
				c5.012,0,9.584-2.864,11.771-7.373C299.717,272.254,299.134,266.891,296.031,262.956z"/>
		</g>
	</g>
</g>
<g>
</g>
<g>
</g>
<g>
</g>
<g>
</g>
<g>
</g>
<g>
</g>
<g>
</g>
<g>
</g>
<g>
</g>
<g>
</g>
<g>
</g>
<g>
</g>
<g>
</g>
<g>
</g>
<g>
</g>
</svg>
